<?xml version="1.0" standalone="no"?>
<!DOCTYPE svg PUBLIC "-//W3C//DTD SVG 20010904//EN"
 "http://www.w3.org/TR/2001/REC-SVG-20010904/DTD/svg10.dtd">
<svg version="1.0" xmlns="http://www.w3.org/2000/svg"
 width="2757.000000pt" height="1835.000000pt" viewBox="0 0 2757.000000 1835.000000"
 preserveAspectRatio="xMidYMid meet">

<g transform="translate(0.000000,1835.000000) scale(0.100000,-0.100000)"
fill="#000000" stroke="none">
<path d="M10 9175 l0 -9175 13778 2 13777 3 0 9170 0 9170 -13777 3 -13778 2
0 -9175z m10365 4665 c87 -13 166 -50 206 -99 17 -20 577 -1060 1244 -2311
1111 -2086 1214 -2275 1239 -2278 l26 -3 0 2263 0 2263 24 52 c31 67 81 100
168 114 39 6 273 9 594 7 l530 -3 59 -30 c49 -25 63 -39 84 -80 l26 -49 3
-1508 2 -1507 -1452 -2515 c-799 -1383 -1453 -2514 -1455 -2512 -2 1 178 423
398 936 327 761 400 938 393 956 -5 13 -407 764 -894 1668 -770 1433 -888
1646 -907 1646 l-23 0 -2 -2257 c-3 -2151 -4 -2260 -21 -2298 -25 -55 -62 -92
-116 -112 -42 -16 -94 -18 -606 -18 -431 0 -570 3 -603 13 -56 17 -117 78
-134 134 -20 65 -19 7335 0 7391 27 76 85 122 171 137 69 11 964 11 1046 0z
m7920 -1673 c55 -25 92 -62 112 -116 17 -44 18 -231 18 -3716 l0 -3670 -22
-41 c-12 -23 -36 -53 -52 -67 -62 -52 -63 -52 -681 -52 -628 0 -620 -1 -687
58 -73 64 -67 -62 -73 1579 l-5 1478 -28 27 -27 28 -1068 3 c-763 2 -1075 -1
-1094 -9 -15 -6 -35 -20 -45 -31 -17 -19 -18 -86 -23 -1492 -5 -1390 -6 -1473
-23 -1511 -25 -55 -62 -92 -116 -112 -42 -16 -95 -18 -626 -18 -570 0 -581 0
-626 21 -25 12 -58 34 -73 50 -58 63 -56 -2 -56 1556 l0 1429 1221 2117 c672
1164 1226 2122 1231 2127 14 15 22 35 -471 -1114 l-461 -1073 0 -275 0 -275
34 -34 34 -34 1076 0 1076 0 32 29 33 29 5 1484 c5 1599 2 1512 58 1571 37 40
78 59 142 68 30 4 300 6 600 5 501 -1 548 -3 585 -19z"/>
</g>
</svg>
